<svg version="1.1" xmlns="http://www.w3.org/2000/svg" viewBox="0 0 657.9136358809351 700.0439592250646" width="657.9136358809351" height="700.0439592250646">
  <!-- svg-source:excalidraw -->
  
  <defs>
    <style class="style-fonts">
      @font-face {
        font-family: "Virgil";
        src: url("https://excalidraw.com/Virgil.woff2");
      }
      @font-face {
        font-family: "Cascadia";
        src: url("https://excalidraw.com/Cascadia.woff2");
      }
    </style>
    
  </defs>
  <rect x="0" y="0" width="657.9136358809351" height="700.0439592250646" fill="#ffffff"></rect><g stroke-linecap="round" transform="translate(10 190.20077691827458) rotate(0 23 44.5)"><path d="M11.5 0 M11.5 0 C19.7 -0.98, 27.35 0.74, 34.5 0 M11.5 0 C18.21 0.77, 23.74 -0.35, 34.5 0 M34.5 0 C42.31 1.1, 46.35 2.34, 46 11.5 M34.5 0 C41.88 1.69, 44.86 2.82, 46 11.5 M46 11.5 C44.53 28.97, 44.72 44.29, 46 77.5 M46 11.5 C45.82 27.03, 46.71 41, 46 77.5 M46 77.5 C47.8 83.17, 42.77 87.08, 34.5 89 M46 77.5 C45.32 85.47, 40.85 87.68, 34.5 89 M34.5 89 C28.03 87.77, 19.74 89.55, 11.5 89 M34.5 89 C27.33 88.8, 20.38 88.75, 11.5 89 M11.5 89 C3.23 87.52, -0.3 85.55, 0 77.5 M11.5 89 C2.67 91.06, 0.85 86.75, 0 77.5 M0 77.5 C-0.7 64.13, 0.69 50.93, 0 11.5 M0 77.5 C-0.18 62.31, -0.72 45.75, 0 11.5 M0 11.5 C-1.89 2.04, 4.56 -1.21, 11.5 0 M0 11.5 C-1.07 3.39, 1.94 -1.38, 11.5 0" stroke="#1e1e1e" stroke-width="1" fill="none"></path></g><g transform="translate(23 211.70077691827458) rotate(0 10 23)"><text x="10" y="0" font-family="Helvetica, Segoe UI Emoji" font-size="20px" fill="#1e1e1e" text-anchor="middle" style="white-space: pre;" direction="ltr" dominant-baseline="text-before-edge">开</text><text x="10" y="23" font-family="Helvetica, Segoe UI Emoji" font-size="20px" fill="#1e1e1e" text-anchor="middle" style="white-space: pre;" direction="ltr" dominant-baseline="text-before-edge">关</text></g><g stroke-linecap="round" transform="translate(10 291.5182657441251) rotate(0 23 44.5)"><path d="M11.5 0 M11.5 0 C16.08 1.83, 22.5 1.15, 34.5 0 M11.5 0 C19.19 -0.86, 24.42 -1.13, 34.5 0 M34.5 0 C40.37 0.91, 47.34 3.1, 46 11.5 M34.5 0 C41.11 -1.44, 45.11 3.96, 46 11.5 M46 11.5 C45.13 36.52, 44.74 64.18, 46 77.5 M46 11.5 C45.38 32.64, 44.9 52.12, 46 77.5 M46 77.5 C44.39 85.02, 40.99 87.92, 34.5 89 M46 77.5 C47.1 84.54, 41.66 90.24, 34.5 89 M34.5 89 C28.91 89.75, 23.8 86.86, 11.5 89 M34.5 89 C26.53 89.49, 17.36 89.81, 11.5 89 M11.5 89 C4.98 87.81, -1.48 83.69, 0 77.5 M11.5 89 C4.81 91.1, 1.13 82.95, 0 77.5 M0 77.5 C0.56 61.74, 0.21 45.84, 0 11.5 M0 77.5 C0.42 57.88, -0.13 40.62, 0 11.5 M0 11.5 C-1.45 5.33, 1.9 -0.48, 11.5 0 M0 11.5 C0.35 4.62, 3.08 -1.24, 11.5 0" stroke="#1e1e1e" stroke-width="1" fill="none"></path></g><g transform="translate(23 313.0182657441251) rotate(0 10 23)"><text x="10" y="0" font-family="Helvetica, Segoe UI Emoji" font-size="20px" fill="#1e1e1e" text-anchor="middle" style="white-space: pre;" direction="ltr" dominant-baseline="text-before-edge">开</text><text x="10" y="23" font-family="Helvetica, Segoe UI Emoji" font-size="20px" fill="#1e1e1e" text-anchor="middle" style="white-space: pre;" direction="ltr" dominant-baseline="text-before-edge">关</text></g><g stroke-linecap="round" transform="translate(10 431.7380268179586) rotate(0 23 44.5)"><path d="M11.5 0 M11.5 0 C17.09 0.37, 22.63 1.65, 34.5 0 M11.5 0 C20.85 -0.68, 29.8 0.65, 34.5 0 M34.5 0 C41.42 0.91, 46.45 5.53, 46 11.5 M34.5 0 C42.08 2.28, 45.67 5.2, 46 11.5 M46 11.5 C47.66 39.25, 47.68 64.27, 46 77.5 M46 11.5 C46 26.55, 46.43 41.39, 46 77.5 M46 77.5 C44.01 86.03, 40.18 89.04, 34.5 89 M46 77.5 C45.69 84.22, 43.37 90.18, 34.5 89 M34.5 89 C25.28 88.13, 17.54 88.75, 11.5 89 M34.5 89 C24.8 89.08, 17.01 88.41, 11.5 89 M11.5 89 C2.77 89.23, -1.3 86.22, 0 77.5 M11.5 89 C4.29 87.37, 0.75 82.9, 0 77.5 M0 77.5 C0.55 55.05, 0.04 29.79, 0 11.5 M0 77.5 C0.68 64.01, -0.11 49.49, 0 11.5 M0 11.5 C-1.92 5.64, 5.15 -1.53, 11.5 0 M0 11.5 C-1.01 2.96, 5.81 -1.27, 11.5 0" stroke="#1e1e1e" stroke-width="1" fill="none"></path></g><g transform="translate(23 453.2380268179586) rotate(0 10 23)"><text x="10" y="0" font-family="Helvetica, Segoe UI Emoji" font-size="20px" fill="#1e1e1e" text-anchor="middle" style="white-space: pre;" direction="ltr" dominant-baseline="text-before-edge">开</text><text x="10" y="23" font-family="Helvetica, Segoe UI Emoji" font-size="20px" fill="#1e1e1e" text-anchor="middle" style="white-space: pre;" direction="ltr" dominant-baseline="text-before-edge">关</text></g><g transform="translate(24.6650390625 388.349058105577) rotate(0 8.3349609375 11.5)"><text x="0" y="0" font-family="Helvetica, Segoe UI Emoji" font-size="20px" fill="#1e1e1e" text-anchor="start" style="white-space: pre;" direction="ltr" dominant-baseline="text-before-edge">...</text></g><g stroke-linecap="round"><g transform="translate(61.81816651636501 247.54704229889956) rotate(0 30.488759495184837 42.236636979253745)"><path d="M-0.29 -0.9 C9.92 13.17, 50.87 69.88, 61.27 84.25 M1.75 1.24 C11.82 15.47, 50.42 71.11, 60.44 85.37" stroke="#1e1e1e" stroke-width="1" fill="none"></path></g><g transform="translate(61.81816651636501 247.54704229889956) rotate(0 30.488759495184837 42.236636979253745)"><path d="M34.39 68.5 C41.92 75.14, 51.12 77.48, 62.17 86.39 M36.7 68.57 C46.06 74.6, 54.6 80.44, 59.67 85.87" stroke="#1e1e1e" stroke-width="1" fill="none"></path></g><g transform="translate(61.81816651636501 247.54704229889956) rotate(0 30.488759495184837 42.236636979253745)"><path d="M51.22 56.76 C53.67 66.89, 57.81 72.76, 62.17 86.39 M53.52 56.83 C56.39 67.59, 58.37 78, 59.67 85.87" stroke="#1e1e1e" stroke-width="1" fill="none"></path></g></g><mask></mask><g stroke-linecap="round"><g transform="translate(59.46223431297534 336.147351412701) rotate(0 32.68491310286626 10.869521706413877)"><path d="M-0.55 0.43 C10.02 3.74, 52.8 17.19, 63.58 20.68 M1.37 -0.4 C12.31 3.04, 55.59 18.86, 65.92 22.14" stroke="#1e1e1e" stroke-width="1" fill="none"></path></g><g transform="translate(59.46223431297534 336.147351412701) rotate(0 32.68491310286626 10.869521706413877)"><path d="M36.63 21.45 C45.04 22.38, 55.5 23.78, 64.73 24.11 M35.35 22.91 C43.57 23.25, 51.17 23.01, 66.32 22.47" stroke="#1e1e1e" stroke-width="1" fill="none"></path></g><g transform="translate(59.46223431297534 336.147351412701) rotate(0 32.68491310286626 10.869521706413877)"><path d="M43.32 2.05 C49.77 9.02, 58.14 16.48, 64.73 24.11 M42.03 3.51 C48.59 8.49, 54.56 12.95, 66.32 22.47" stroke="#1e1e1e" stroke-width="1" fill="none"></path></g></g><mask></mask><g stroke-linecap="round"><g transform="translate(60.27440172458523 466.06035656589984) rotate(0 32.2796525769748 -45.45740488472842)"><path d="M-0.28 -1.06 C10.53 -16.47, 53.9 -76.93, 64.84 -91.91 M1.78 1 C12.45 -14.26, 53.46 -74.73, 63.98 -90.36" stroke="#1e1e1e" stroke-width="1" fill="none"></path></g><g transform="translate(60.27440172458523 466.06035656589984) rotate(0 32.2796525769748 -45.45740488472842)"><path d="M54.92 -60.98 C58.75 -68.81, 62.49 -79.47, 63.36 -88.62 M56.59 -61.44 C58.92 -71.15, 61.59 -81.95, 62.98 -89.42" stroke="#1e1e1e" stroke-width="1" fill="none"></path></g><g transform="translate(60.27440172458523 466.06035656589984) rotate(0 32.2796525769748 -45.45740488472842)"><path d="M37.92 -72.47 C46.86 -76.85, 55.65 -84.1, 63.36 -88.62 M39.59 -72.93 C47.72 -78.56, 56.24 -85.41, 62.98 -89.42" stroke="#1e1e1e" stroke-width="1" fill="none"></path></g></g><mask></mask><g stroke-linecap="round" transform="translate(365.23385615442 147.26862494984186) rotate(0 67.5 28)"><path d="M14 0 M14 0 C36.15 -0.56, 56.94 -1.12, 121 0 M14 0 C43.9 0.49, 73.87 1.52, 121 0 M121 0 C129.93 -0.46, 134.55 4.92, 135 14 M121 0 C130.32 -2.23, 133.51 3.98, 135 14 M135 14 C134.12 25.28, 134.67 33.92, 135 42 M135 14 C134.02 21.93, 135.35 31.06, 135 42 M135 42 C136.54 49.58, 131.06 55.27, 121 56 M135 42 C133.76 50.98, 129.07 53.9, 121 56 M121 56 C90.97 58.59, 61.6 55.07, 14 56 M121 56 C84.06 56.13, 46.75 54.6, 14 56 M14 56 C6.59 55.47, 1.16 51.85, 0 42 M14 56 C3.62 57.34, -1.9 50.69, 0 42 M0 42 C-0.76 36.18, -0.34 31.16, 0 14 M0 42 C0.54 34.17, -1.01 25.43, 0 14 M0 14 C-0.1 4.99, 3.56 1.9, 14 0 M0 14 C1.2 4.19, 4.35 2.1, 14 0" stroke="#1e1e1e" stroke-width="1" fill="none"></path></g><g transform="translate(372.73385615442 152.26862494984186) rotate(0 60 23)"><text x="60" y="0" font-family="Helvetica, Segoe UI Emoji" font-size="20px" fill="#1e1e1e" text-anchor="middle" style="white-space: pre;" direction="ltr" dominant-baseline="text-before-edge">Apple TV</text><text x="60" y="23" font-family="Helvetica, Segoe UI Emoji" font-size="20px" fill="#1e1e1e" text-anchor="middle" style="white-space: pre;" direction="ltr" dominant-baseline="text-before-edge">（家居中枢）</text></g><g stroke-linecap="round" transform="translate(571.1067898835626 10) rotate(0 23.000000000000057 44.5)"><path d="M11.5 0 M11.5 0 C18.1 1.14, 23.44 -1.7, 34.5 0 M11.5 0 C16.47 0.23, 21.04 0.98, 34.5 0 M34.5 0 C40.25 -0.29, 47.15 5.59, 46 11.5 M34.5 0 C42.28 2.21, 47.18 1.59, 46 11.5 M46 11.5 C47.2 36.42, 45.92 61.75, 46 77.5 M46 11.5 C47.15 25.52, 45.85 40.25, 46 77.5 M46 77.5 C45.96 83.69, 41.96 89.42, 34.5 89 M46 77.5 C44.11 83.02, 42.7 89.72, 34.5 89 M34.5 89 C29.6 88.75, 19.2 90.87, 11.5 89 M34.5 89 C30.22 89.74, 23.45 87.87, 11.5 89 M11.5 89 C3.74 89.23, -0.28 83.85, 0 77.5 M11.5 89 C2.15 88.07, -1.16 85.98, 0 77.5 M0 77.5 C-0.66 64.87, 1.57 50.04, 0 11.5 M0 77.5 C-0.56 62.13, -0.23 47.96, 0 11.5 M0 11.5 C-1.8 4.28, 4.37 0.17, 11.5 0 M0 11.5 C2.19 4.25, 6.03 0.95, 11.5 0" stroke="#1e1e1e" stroke-width="1" fill="none"></path></g><g transform="translate(584.1067898835618 31.5) rotate(0 10 23)"><text x="10" y="0" font-family="Helvetica, Segoe UI Emoji" font-size="20px" fill="#1e1e1e" text-anchor="middle" style="white-space: pre;" direction="ltr" dominant-baseline="text-before-edge">手</text><text x="10" y="23" font-family="Helvetica, Segoe UI Emoji" font-size="20px" fill="#1e1e1e" text-anchor="middle" style="white-space: pre;" direction="ltr" dominant-baseline="text-before-edge">机</text></g><g stroke-linecap="round" transform="translate(571.1067898835626 111.31748882585055) rotate(0 23.000000000000057 44.5)"><path d="M11.5 0 M11.5 0 C17.84 -0.97, 27.56 0.72, 34.5 0 M11.5 0 C17.86 -0.36, 26.72 0.67, 34.5 0 M34.5 0 C42.27 1.92, 47.03 1.88, 46 11.5 M34.5 0 C44.06 2.09, 45.34 4.52, 46 11.5 M46 11.5 C44.13 31.46, 45.16 50.61, 46 77.5 M46 11.5 C45.63 28.28, 45.54 46.74, 46 77.5 M46 77.5 C44.36 83.3, 42.63 89.63, 34.5 89 M46 77.5 C45.91 84.37, 41.75 91.19, 34.5 89 M34.5 89 C26.37 90.26, 19.64 91.06, 11.5 89 M34.5 89 C25.45 88.9, 16.36 88.12, 11.5 89 M11.5 89 C2.37 88.19, -1.01 85.88, 0 77.5 M11.5 89 C1.64 90.43, -0.76 84.88, 0 77.5 M0 77.5 C-2.24 53.95, -2.59 30.49, 0 11.5 M0 77.5 C-0.55 63.21, 0.62 48.57, 0 11.5 M0 11.5 C1.9 4.2, 5.74 0.82, 11.5 0 M0 11.5 C-0.12 5.03, 2.75 -2.23, 11.5 0" stroke="#1e1e1e" stroke-width="1" fill="none"></path></g><g transform="translate(584.1067898835618 132.81748882585055) rotate(0 10 23)"><text x="10" y="0" font-family="Helvetica, Segoe UI Emoji" font-size="20px" fill="#1e1e1e" text-anchor="middle" style="white-space: pre;" direction="ltr" dominant-baseline="text-before-edge">手</text><text x="10" y="23" font-family="Helvetica, Segoe UI Emoji" font-size="20px" fill="#1e1e1e" text-anchor="middle" style="white-space: pre;" direction="ltr" dominant-baseline="text-before-edge">机</text></g><g stroke-linecap="round" transform="translate(571.1067898835626 251.5372498996835) rotate(0 23.000000000000057 44.5)"><path d="M11.5 0 M11.5 0 C17.43 0.22, 24.5 -1.98, 34.5 0 M11.5 0 C18.12 0.76, 25.16 -1.18, 34.5 0 M34.5 0 C43.81 1.82, 45.42 4.43, 46 11.5 M34.5 0 C41.81 -0.78, 45.76 1.94, 46 11.5 M46 11.5 C45.11 34.1, 45.86 58.79, 46 77.5 M46 11.5 C45.11 25.5, 46.16 41.69, 46 77.5 M46 77.5 C45.92 84.48, 41.8 90.9, 34.5 89 M46 77.5 C45.76 83.23, 44.36 87.3, 34.5 89 M34.5 89 C28.23 87.92, 16.39 89.12, 11.5 89 M34.5 89 C26.6 88.44, 19.67 89.2, 11.5 89 M11.5 89 C1.92 90.25, -0.66 84.92, 0 77.5 M11.5 89 C4.82 91.28, -0.54 83.34, 0 77.5 M0 77.5 C-0.96 59.66, -0.16 42.13, 0 11.5 M0 77.5 C0.78 56.42, 0.78 35.39, 0 11.5 M0 11.5 C-0.11 4.87, 2.89 -1.94, 11.5 0 M0 11.5 C-1.58 4.29, 6.02 2.14, 11.5 0" stroke="#1e1e1e" stroke-width="1" fill="none"></path></g><g transform="translate(584.1067898835618 273.03724989968373) rotate(0 10 23)"><text x="10" y="0" font-family="Helvetica, Segoe UI Emoji" font-size="20px" fill="#1e1e1e" text-anchor="middle" style="white-space: pre;" direction="ltr" dominant-baseline="text-before-edge">手</text><text x="10" y="23" font-family="Helvetica, Segoe UI Emoji" font-size="20px" fill="#1e1e1e" text-anchor="middle" style="white-space: pre;" direction="ltr" dominant-baseline="text-before-edge">机</text></g><g transform="translate(585.7718289460618 208.14828118730225) rotate(0 8.3349609375 11.5)"><text x="0" y="0" font-family="Helvetica, Segoe UI Emoji" font-size="20px" fill="#1e1e1e" text-anchor="start" style="white-space: pre;" direction="ltr" dominant-baseline="text-before-edge">...</text></g><g stroke-linecap="round"><g transform="translate(500.7075375484196 175.10628913827952) rotate(0 34.886979944176346 -60.42745942934242)"><path d="M0.86 -0.66 C12.55 -20.71, 58.65 -100.48, 69.93 -120.85 M-0.15 1.61 C11.48 -18.72, 58.18 -101.84, 69.45 -122.46" stroke="#1e1e1e" stroke-width="1" fill="none"></path></g><g transform="translate(500.7075375484196 175.10628913827952) rotate(0 34.886979944176346 -60.42745942934242)"><path d="M63.63 -91.35 C67.8 -102.06, 65.71 -107.84, 68.51 -122.02 M63.89 -91.92 C65.21 -100.56, 67.37 -110.54, 69.9 -122.25" stroke="#1e1e1e" stroke-width="1" fill="none"></path></g><g transform="translate(500.7075375484196 175.10628913827952) rotate(0 34.886979944176346 -60.42745942934242)"><path d="M45.69 -101.32 C54.83 -109.36, 57.77 -112.36, 68.51 -122.02 M45.95 -101.88 C52.49 -107.56, 59.9 -114.62, 69.9 -122.25" stroke="#1e1e1e" stroke-width="1" fill="none"></path></g></g><mask></mask><g stroke-linecap="round"><g transform="translate(500.7075375484196 178.35495878471943) rotate(0 33.103053999005965 -10.546749144001609)"><path d="M0.02 -0.98 C11.02 -4.23, 54.27 -17.11, 65.5 -20.45 M-1.43 1.12 C9.97 -2.39, 56.22 -18.76, 67.64 -22.22" stroke="#1e1e1e" stroke-width="1" fill="none"></path></g><g transform="translate(500.7075375484196 178.35495878471943) rotate(0 33.103053999005965 -10.546749144001609)"><path d="M42.48 -5.43 C51.41 -6.99, 56.54 -12.48, 69.28 -22.14 M44.21 -3.94 C50.68 -8.6, 57.32 -14.06, 67.97 -21.37" stroke="#1e1e1e" stroke-width="1" fill="none"></path></g><g transform="translate(500.7075375484196 178.35495878471943) rotate(0 33.103053999005965 -10.546749144001609)"><path d="M36.02 -24.91 C46.45 -21.48, 53.24 -21.98, 69.28 -22.14 M37.75 -23.42 C45.96 -22.49, 54.48 -22.31, 67.97 -21.37" stroke="#1e1e1e" stroke-width="1" fill="none"></path></g></g><mask></mask><g stroke-linecap="round"><g transform="translate(501.5197049600297 177.54279137310942) rotate(0 34.650836848458994 60.44684655055701)"><path d="M1.17 -0.47 C12.14 20.08, 55.63 102.19, 66.66 122.65 M0.32 -1.76 C11.61 18.51, 57.95 100.63, 68.98 120.97" stroke="#1e1e1e" stroke-width="1" fill="none"></path></g><g transform="translate(501.5197049600297 177.54279137310942) rotate(0 34.650836848458994 60.44684655055701)"><path d="M45.55 100.05 C55.9 108.17, 63.63 113.91, 68.53 119.23 M45.69 101.96 C50.23 106.43, 56.03 109.45, 68.21 120.22" stroke="#1e1e1e" stroke-width="1" fill="none"></path></g><g transform="translate(501.5197049600297 177.54279137310942) rotate(0 34.650836848458994 60.44684655055701)"><path d="M63.49 90.1 C67.22 102.03, 68.39 111.41, 68.53 119.23 M63.63 92 C64.32 98.67, 66.27 103.83, 68.21 120.22" stroke="#1e1e1e" stroke-width="1" fill="none"></path></g></g><mask></mask><g stroke-linecap="round" transform="translate(134.15475335224482 283.7366964643985) rotate(0 85 69.5)"><path d="M32 0 M32 0 C73.76 -1.37, 114.79 0.1, 138 0 M32 0 C56.39 1.06, 79.95 0.09, 138 0 M138 0 C160.84 -0.96, 168.26 10.03, 170 32 M138 0 C161.18 -2.21, 170.55 12.53, 170 32 M170 32 C169.28 49.54, 170.35 70.64, 170 107 M170 32 C169.74 57.13, 170.83 82.69, 170 107 M170 107 C168.52 126.34, 160.06 140.73, 138 139 M170 107 C170.87 128.12, 161.37 140.91, 138 139 M138 139 C111.86 138.2, 86.25 139.33, 32 139 M138 139 C113.38 139.15, 89.86 140.16, 32 139 M32 139 C10.33 137.75, 0.7 127.47, 0 107 M32 139 C12.63 136.71, -1.2 127.03, 0 107 M0 107 C0.07 80.91, -0.37 51.96, 0 32 M0 107 C0.02 86.61, 0.01 64.44, 0 32 M0 32 C-1.39 9.89, 8.67 -0.91, 32 0 M0 32 C-2.24 10.78, 9.51 -1.2, 32 0" stroke="#1e1e1e" stroke-width="1" fill="none"></path></g><g transform="translate(149.13033928974482 288.7366964643985) rotate(0 70.0244140625 11.5)"><text x="70.0244140625" y="0" font-family="Helvetica, Segoe UI Emoji" font-size="20px" fill="#1e1e1e" text-anchor="middle" style="white-space: pre;" direction="ltr" dominant-baseline="text-before-edge">Home Assistant</text></g><g stroke-linecap="round" transform="translate(141.65475335224482 329.3177088850355) rotate(0 77.5 17)"><path d="M8.5 0 M8.5 0 C37.57 0.19, 67.91 1.22, 146.5 0 M8.5 0 C41.36 -0.83, 73.16 -1.11, 146.5 0 M146.5 0 C153.04 -1.25, 153.23 2.49, 155 8.5 M146.5 0 C153.76 -0.2, 154.19 3.12, 155 8.5 M155 8.5 C155.58 12.71, 154.39 19.11, 155 25.5 M155 8.5 C154.73 12.78, 154.9 16.38, 155 25.5 M155 25.5 C154.39 31.21, 152.82 35.35, 146.5 34 M155 25.5 C152.91 28.87, 151.78 31.81, 146.5 34 M146.5 34 C91.86 33.15, 38.92 33.04, 8.5 34 M146.5 34 C108.8 34.49, 71.45 34.46, 8.5 34 M8.5 34 C4.7 34.93, -1.88 32.63, 0 25.5 M8.5 34 C1.15 36.26, 0.72 31.75, 0 25.5 M0 25.5 C1.14 20.48, -1.34 16.17, 0 8.5 M0 25.5 C-0.07 21.57, -0.47 17.49, 0 8.5 M0 8.5 C-0.82 3.2, 3.68 -1.01, 8.5 0 M0 8.5 C-1.93 0.94, 0.65 1.59, 8.5 0" stroke="#1e1e1e" stroke-width="1" fill="none"></path></g><g transform="translate(149.12545647724482 334.8177088850355) rotate(0 70.029296875 11.5)"><text x="70.029296875" y="0" font-family="Helvetica, Segoe UI Emoji" font-size="20px" fill="#1e1e1e" text-anchor="middle" style="white-space: pre;" direction="ltr" dominant-baseline="text-before-edge">HomeKit Bridge</text></g><g stroke-linecap="round" transform="translate(141.65475335224482 374.85459957900275) rotate(0 77.5 17)"><path d="M8.5 0 M8.5 0 C47.39 0.18, 88.65 -0.71, 146.5 0 M8.5 0 C43.57 -0.82, 78.66 -1.85, 146.5 0 M146.5 0 C150.67 1.12, 154.35 2.84, 155 8.5 M146.5 0 C151.35 1.18, 154.66 1.98, 155 8.5 M155 8.5 C154.73 15.42, 156.32 19.61, 155 25.5 M155 8.5 C154.6 14.06, 155.53 18, 155 25.5 M155 25.5 C154.92 32.75, 152.48 34.61, 146.5 34 M155 25.5 C154.7 31.04, 151.36 34.69, 146.5 34 M146.5 34 C102.81 31.76, 60.88 32.48, 8.5 34 M146.5 34 C96.29 34.12, 47.52 34.7, 8.5 34 M8.5 34 C1.96 35.57, 1.31 30.09, 0 25.5 M8.5 34 C1.56 34.21, -0.24 30.59, 0 25.5 M0 25.5 C-0.63 18.35, -0.19 14.39, 0 8.5 M0 25.5 C-0.38 21.99, -0.06 18.36, 0 8.5 M0 8.5 C-1.26 2.7, 4.11 0.74, 8.5 0 M0 8.5 C-1.9 0.9, 2.64 -1.58, 8.5 0" stroke="#1e1e1e" stroke-width="1" fill="none"></path></g><g transform="translate(155.78561272724482 380.35459957900275) rotate(0 63.369140625 11.5)"><text x="63.369140625" y="0" font-family="Helvetica, Segoe UI Emoji" font-size="20px" fill="#1e1e1e" text-anchor="middle" style="white-space: pre;" direction="ltr" dominant-baseline="text-before-edge">Emulated Hue</text></g><g stroke-linecap="round" transform="translate(364.21289433291884 503.6477828350543) rotate(0 67.5 28)"><path d="M14 0 M14 0 C44.34 -1.52, 76.44 -0.21, 121 0 M14 0 C37.45 -0.35, 59.41 -1.49, 121 0 M121 0 C130.99 1.45, 134.81 5.83, 135 14 M121 0 C131.36 -1.94, 137.09 3.31, 135 14 M135 14 C136.39 19.48, 135.61 28.12, 135 42 M135 14 C135.99 23.28, 134.96 34.43, 135 42 M135 42 C133.64 49.92, 131.97 55.35, 121 56 M135 42 C133.89 51.65, 130.54 57.9, 121 56 M121 56 C81.64 56.91, 40.27 57.45, 14 56 M121 56 C91.27 55.65, 63.12 56.05, 14 56 M14 56 C5.18 56.38, 1.46 52.24, 0 42 M14 56 C3.41 56.71, 0.93 52.51, 0 42 M0 42 C-0.11 32.67, 1.02 26.07, 0 14 M0 42 C-0.02 32.79, -0.36 24.81, 0 14 M0 14 C-0.14 3.45, 3.56 -0.95, 14 0 M0 14 C0.67 6.32, 3.01 -0.51, 14 0" stroke="#1e1e1e" stroke-width="1" fill="none"></path></g><g transform="translate(406.69824589541884 520.1477828350543) rotate(0 25.0146484375 11.5)"><text x="25.0146484375" y="0" font-family="Helvetica, Segoe UI Emoji" font-size="20px" fill="#1e1e1e" text-anchor="middle" style="white-space: pre;" direction="ltr" dominant-baseline="text-before-edge">Alexa</text></g><g transform="translate(584.7508671245587 564.5274390725148) rotate(0 8.3349609375 11.5)"><text x="0" y="0" font-family="Helvetica, Segoe UI Emoji" font-size="20px" fill="#1e1e1e" text-anchor="start" style="white-space: pre;" direction="ltr" dominant-baseline="text-before-edge">...</text></g><g stroke-linecap="round"><g transform="translate(499.6865757269185 531.4854470234919) rotate(0 34.401481472729586 -60.49086228983555)"><path d="M1.09 -0.71 C12.07 -20.96, 55.34 -102.33, 66.41 -122.52 M0.2 1.54 C11.5 -18.41, 57.49 -100.04, 68.6 -120.92" stroke="#1e1e1e" stroke-width="1" fill="none"></path></g><g transform="translate(499.6865757269185 531.4854470234919) rotate(0 34.401481472729586 -60.49086228983555)"><path d="M62.83 -92.94 C66.04 -101.3, 68.79 -112.36, 69.18 -118.95 M64.93 -92.2 C65.51 -102.11, 66.61 -113.63, 69.42 -121.25" stroke="#1e1e1e" stroke-width="1" fill="none"></path></g><g transform="translate(499.6865757269185 531.4854470234919) rotate(0 34.401481472729586 -60.49086228983555)"><path d="M44.85 -102.83 C54.17 -107.94, 63.13 -115.59, 69.18 -118.95 M46.95 -102.09 C54.1 -108.57, 61.75 -116.5, 69.42 -121.25" stroke="#1e1e1e" stroke-width="1" fill="none"></path></g></g><mask></mask><g stroke-linecap="round"><g transform="translate(499.6865757269185 534.734116669932) rotate(0 31.24762405034363 -10.935766079067946)"><path d="M-1 0.12 C9.4 -3.15, 52.83 -16.82, 63.49 -20.3 M0.68 -0.87 C10.84 -4.4, 52.39 -18.31, 62.62 -21.99" stroke="#1e1e1e" stroke-width="1" fill="none"></path></g><g transform="translate(499.6865757269185 534.734116669932) rotate(0 31.24762405034363 -10.935766079067946)"><path d="M39.52 -2.85 C49.9 -10.87, 58.22 -15.69, 63.91 -21.53 M39.22 -3.07 C47.78 -11.14, 58.6 -18.31, 62.13 -21.85" stroke="#1e1e1e" stroke-width="1" fill="none"></path></g><g transform="translate(499.6865757269185 534.734116669932) rotate(0 31.24762405034363 -10.935766079067946)"><path d="M32.82 -22.25 C45.71 -22.64, 56.64 -19.87, 63.91 -21.53 M32.52 -22.47 C43.94 -22.72, 57.43 -22.14, 62.13 -21.85" stroke="#1e1e1e" stroke-width="1" fill="none"></path></g></g><mask></mask><g stroke-linecap="round"><g transform="translate(500.49874313852854 533.9219492583219) rotate(0 32.49970157366994 59.56472486491526)"><path d="M0.14 0.82 C11.35 20.62, 54.97 99.17, 66.24 118.93 M-1.24 0.2 C9.86 19.62, 53.62 97.45, 65.1 116.99" stroke="#1e1e1e" stroke-width="1" fill="none"></path></g><g transform="translate(500.49874313852854 533.9219492583219) rotate(0 32.49970157366994 59.56472486491526)"><path d="M43.55 97.04 C47.76 103.78, 53.44 106.46, 67.1 118.84 M41.5 96.93 C47.74 101.32, 51.2 105.81, 65.19 117.81" stroke="#1e1e1e" stroke-width="1" fill="none"></path></g><g transform="translate(500.49874313852854 533.9219492583219) rotate(0 32.49970157366994 59.56472486491526)"><path d="M61.35 86.83 C61.71 95.81, 63.53 100.7, 67.1 118.84 M59.3 86.72 C61.84 93.24, 61.6 99.84, 65.19 117.81" stroke="#1e1e1e" stroke-width="1" fill="none"></path></g></g><mask></mask><g stroke-linecap="round" transform="translate(568.1174327120464 375.71163980594076) rotate(0 39.187832588390165 35.75889723690602)"><path d="M35.78 0.25 C43.23 -0.93, 53.89 0.8, 60.47 4.33 C67.05 7.86, 72.58 14.85, 75.26 21.42 C77.94 28, 78.5 36.88, 76.56 43.78 C74.63 50.68, 69.25 58.23, 63.64 62.81 C58.04 67.39, 50.5 70.58, 42.95 71.24 C35.4 71.9, 24.85 70.27, 18.34 66.8 C11.82 63.32, 6.84 56.81, 3.84 50.38 C0.83 43.96, -1.25 35.23, 0.32 28.25 C1.9 21.26, 5.64 13, 13.26 8.49 C20.88 3.97, 39.08 2.09, 46.03 1.15 C52.99 0.22, 55.05 2.31, 54.96 2.88 M24.79 1.82 C31.34 -0.87, 42.81 -0.12, 50.57 1.7 C58.34 3.52, 67.01 7.38, 71.4 12.74 C75.78 18.11, 77.01 26.75, 76.86 33.87 C76.71 41, 74.74 49.71, 70.49 55.52 C66.23 61.33, 58.18 66.08, 51.34 68.74 C44.5 71.39, 36.44 73.16, 29.47 71.44 C22.51 69.73, 14.34 64.23, 9.56 58.45 C4.78 52.66, 1.33 44.02, 0.79 36.72 C0.24 29.42, 2.03 20.42, 6.29 14.67 C10.55 8.92, 23.26 4.12, 26.36 2.23 C29.45 0.35, 24.57 3, 24.87 3.37" stroke="#1e1e1e" stroke-width="1" fill="none"></path></g><g transform="translate(585.7268749340576 400.90392831887766) rotate(0 21.368408203125 10.78125)"><text x="21.368408203125" y="0" font-family="Helvetica, Segoe UI Emoji" font-size="18.749999999999996px" fill="#1e1e1e" text-anchor="middle" style="white-space: pre;" direction="ltr" dominant-baseline="text-before-edge">Echo</text></g><g stroke-linecap="round" transform="translate(568.7258032925449 479.6455373659486) rotate(0 39.187832588390165 35.75889723690602)"><path d="M22.12 3.35 C28.52 0.35, 38.5 0.35, 46.26 1.52 C54.03 2.7, 63.47 5.57, 68.7 10.39 C73.93 15.22, 76.81 23.49, 77.65 30.45 C78.48 37.42, 77.27 45.75, 73.72 52.17 C70.17 58.6, 63.29 65.94, 56.35 69.01 C49.42 72.08, 39.66 71.92, 32.1 70.6 C24.53 69.28, 16.33 66.26, 10.96 61.08 C5.59 55.89, 0.94 46.61, -0.15 39.48 C-1.24 32.36, -0.27 24.78, 4.42 18.32 C9.11 11.87, 23.23 3.56, 28 0.76 C32.76 -2.04, 32.97 0.8, 32.99 1.53 M47.11 0.24 C54.39 1.41, 63.07 7.69, 68.19 12.82 C73.3 17.95, 77.1 24.28, 77.8 31.01 C78.51 37.74, 76.24 46.92, 72.41 53.19 C68.57 59.46, 61.79 65.65, 54.8 68.64 C47.81 71.64, 37.77 72.67, 30.46 71.15 C23.15 69.63, 15.78 64.83, 10.97 59.51 C6.16 54.2, 2.7 46.44, 1.61 39.26 C0.52 32.09, 0.87 22.65, 4.41 16.45 C7.94 10.25, 15.62 4.58, 22.82 2.05 C30.01 -0.47, 43.47 1.25, 47.58 1.29 C51.68 1.33, 47.61 1.69, 47.45 2.3" stroke="#1e1e1e" stroke-width="1" fill="none"></path></g><g transform="translate(586.3352455145562 504.8378258788855) rotate(0 21.368408203125 10.78125)"><text x="21.368408203125" y="0" font-family="Helvetica, Segoe UI Emoji" font-size="18.749999999999996px" fill="#1e1e1e" text-anchor="middle" style="white-space: pre;" direction="ltr" dominant-baseline="text-before-edge">Echo</text></g><g stroke-linecap="round" transform="translate(569.5379707041548 618.5261647512525) rotate(0 39.187832588390165 35.75889723690602)"><path d="M24.31 3.38 C30.94 0.26, 41.05 -1.11, 48.62 0.41 C56.18 1.92, 64.71 7.02, 69.7 12.44 C74.7 17.86, 78.2 25.94, 78.6 32.94 C79 39.94, 76.37 48.33, 72.1 54.46 C67.82 60.59, 59.98 66.99, 52.96 69.72 C45.95 72.44, 37.45 72.54, 30.02 70.79 C22.59 69.04, 13.24 64.63, 8.37 59.22 C3.49 53.8, 1.22 45.26, 0.77 38.29 C0.31 31.32, 0.7 23.53, 5.63 17.37 C10.56 11.21, 25.27 4.01, 30.32 1.34 C35.38 -1.32, 35.93 0.98, 35.99 1.35 M33.03 1.27 C40.07 -0.28, 49.08 0.3, 56.01 3.27 C62.95 6.24, 70.8 12.65, 74.63 19.08 C78.47 25.52, 80.39 34.8, 79.02 41.9 C77.65 49, 72.13 57.04, 66.42 61.69 C60.71 66.35, 52.14 69.05, 44.76 69.82 C37.37 70.59, 28.96 69.49, 22.12 66.29 C15.27 63.09, 7.31 56.88, 3.68 50.6 C0.04 44.32, -0.94 35.1, 0.31 28.61 C1.57 22.12, 5.86 16.46, 11.22 11.65 C16.58 6.84, 28.51 1.48, 32.47 -0.26 C36.44 -2.01, 34.68 0.4, 35 1.17" stroke="#1e1e1e" stroke-width="1" fill="none"></path></g><g transform="translate(587.147412926166 643.7184532641894) rotate(0 21.368408203125 10.78125)"><text x="21.368408203125" y="0" font-family="Helvetica, Segoe UI Emoji" font-size="18.749999999999996px" fill="#1e1e1e" text-anchor="middle" style="white-space: pre;" direction="ltr" dominant-baseline="text-before-edge">Echo</text></g><g stroke-linecap="round"><g transform="translate(297.8641600627998 346.92742657215587) rotate(0 32.444482839249474 -78.38100320083316)"><path d="M-0.64 -1.15 C10.48 -27.31, 54.77 -130.15, 65.53 -155.9 M1.22 0.85 C12.36 -25.12, 54.12 -131.23, 64.98 -157.62" stroke="#1e1e1e" stroke-width="1" fill="none"></path></g><g transform="translate(297.8641600627998 346.92742657215587) rotate(0 32.444482839249474 -78.38100320083316)"><path d="M62.07 -126.38 C65.22 -135.05, 65.83 -139.53, 64.48 -158.82 M63.52 -126.88 C63.49 -134.18, 63.88 -141.93, 65.8 -158.46" stroke="#1e1e1e" stroke-width="1" fill="none"></path></g><g transform="translate(297.8641600627998 346.92742657215587) rotate(0 32.444482839249474 -78.38100320083316)"><path d="M43.02 -134.03 C50.05 -141.07, 54.48 -144.02, 64.48 -158.82 M44.47 -134.52 C48.75 -140.12, 53.47 -146.13, 65.8 -158.46" stroke="#1e1e1e" stroke-width="1" fill="none"></path></g></g><mask></mask><g stroke-linecap="round"><g transform="translate(298.67632747440973 389.2165076941968) rotate(0 29.48504978882005 70.34888741360419)"><path d="M-0.98 0.9 C8.95 24.44, 49.81 117.31, 59.95 140.37 M0.71 0.32 C10.52 23.57, 49.66 115.17, 59.45 138.5" stroke="#1e1e1e" stroke-width="1" fill="none"></path></g><g transform="translate(298.67632747440973 389.2165076941968) rotate(0 29.48504978882005 70.34888741360419)"><path d="M40.5 117.98 C46.39 125.23, 51.38 133.01, 61.12 138.05 M39.5 116.05 C43.23 121.65, 49.08 128.17, 58.59 137.99" stroke="#1e1e1e" stroke-width="1" fill="none"></path></g><g transform="translate(298.67632747440973 389.2165076941968) rotate(0 29.48504978882005 70.34888741360419)"><path d="M59.39 109.97 C58.98 119.72, 57.71 130.15, 61.12 138.05 M58.39 108.04 C57.29 115.73, 58.31 124.3, 58.59 137.99" stroke="#1e1e1e" stroke-width="1" fill="none"></path></g></g><mask></mask></svg>